# xmcd
#
# Track frame offsets: 
#        150
#        10475
#        23252
#        37017
#        49675
#        61785
#        70762
#        81225
#        97595
#        106932
#        115075
#        130695
#        142275
#        154360
#        163267
#        176787
#        195077
#
# Disc length: 2749 seconds
#
# Revision: 4
# Processed by: cddbd v1.5.2PL0 Copyright (c) Steve Scherf et al.
# Submitted via: ExactAudioCopyFreeDBPlugin 1.0
#
DISCID=d80abb11
DTITLE=Carpetbaggers - Sin Now... Pray Later
DYEAR=1996
DGENRE=Rock
TTITLE0=Sin Now... Pray Later
TTITLE1=No Such Luck
TTITLE2=Absent Without Leaving
TTITLE3=The Way You Left Me
TTITLE4=Walking, Talking Dead Man
TTITLE5=My Jeannie's In A Bottle
TTITLE6=I Sure Do Love You Baby
TTITLE7=War Between The States
TTITLE8=Don't Ask And I Won't Tell
TTITLE9=It's Nearly Over
TTITLE10=You Stay There
TTITLE11=I Guess I'm Crazy
TTITLE12=Estranged Bedfellows
TTITLE13=The Last Time
TTITLE14=Suburban Boy
TTITLE15=I Don't Care Too Much About That Kind Of Thing Today
TTITLE16=That's That
EXTD=
EXTT0=
EXTT1=
EXTT2=
EXTT3=
EXTT4=
EXTT5=
EXTT6=
EXTT7=
EXTT8=
EXTT9=
EXTT10=
EXTT11=
EXTT12=
EXTT13=
EXTT14=
EXTT15=
EXTT16=
PLAYORDER=
